# xmcd
#
# Track frame offsets: 
#        150
#        11670
#        25930
#        36213
#        77590
#        94220
#        106650
#        127428
#        140128
#        155298
#        178863
#        187758
#        196315
#        205455
#
# Disc length: 2946 seconds
#
# Revision: 1
# Processed by: cddbd v1.5.1PL2 Copyright (c) Steve Scherf et al.
# Submitted via: ExactAudioCopy v0.95a5
#
DISCID=bf0b800e
DTITLE=Count Basie - Good Time Blues
DYEAR=1970
DGENRE=Jazz
TTITLE0=Hittin' Twelve
TTITLE1=Frankie and Johnnie
TTITLE2=Summertime
TTITLE3=I Needs to Be Bee'd With
TTITLE4=Cute
TTITLE5=Light and Lovely
TTITLE6=A Night in Tunisia
TTITLE7=Sunset Glow
TTITLE8=Magic Flea
TTITLE9=Good Time Blues
TTITLE10=Four or Five Times
TTITLE11=The Party's Over
TTITLE12=One O'clock Jump
TTITLE13=Jumpin' at the Woodside
EXTD=YEAR: 2004
EXTT0=
EXTT1=
EXTT2=
EXTT3=
EXTT4=
EXTT5=
EXTT6=
EXTT7=
EXTT8=
EXTT9=
EXTT10=
EXTT11=
EXTT12=
EXTT13=
PLAYORDER=
